<svg version="1.1" viewBox="0.0 0.0 960.0 360.0" fill="none" stroke="none" stroke-linecap="square" stroke-miterlimit="10" xmlns:xlink="http://www.w3.org/1999/xlink" xmlns="http://www.w3.org/2000/svg"><clipPath id="p.0"><path d="m0 0l960.0 0l0 360.0l-960.0 0l0 -360.0z" clip-rule="nonzero"/></clipPath><g clip-path="url(#p.0)"><path fill="#000000" fill-opacity="0.0" d="m0 0l960.0 0l0 360.0l-960.0 0z" fill-rule="evenodd"/><path fill="#000000" fill-opacity="0.0" d="m0 0l960.0 0l0 360.0l-960.0 0z" fill-rule="evenodd"/><path fill="#202c3b" d="m125.2999 264.40625l59.59375 -103.8125q0 -0.59375 -0.59375 -0.59375q-57.40625 52.796875 -78.203125 77.203125q-2.796875 3.203125 -13.90625 14.203125q-11.09375 11.0 -13.390625 12.796875q-2.296875 1.796875 -8.09375 2.796875q-1.203125 0 -1.203125 -1.40625q0 -1.390625 15.890625 -20.484375q15.90625 -19.109375 34.90625 -42.40625q19.0 -23.296875 34.890625 -49.703125q15.90625 -26.40625 15.90625 -40.796875q0 -8.40625 -8.59375 -8.40625q-14.609375 0 -33.3125 11.8125q-18.6875 11.796875 -33.59375 27.59375q-14.890625 15.796875 -25.296875 32.09375q-10.40625 16.296875 -10.40625 25.296875q0 5.609375 6.59375 5.609375q6.609375 0 15.3125 -4.390625q8.703125 -4.40625 16.5 -10.8125q15.796875 -13.0 25.796875 -23.59375l4.0 -4.40625q0.796875 -0.59375 1.390625 -0.59375q0.609375 0 0.609375 1.1875q-25.0 28.203125 -48.796875 40.40625q-9.59375 4.796875 -17.0 4.796875q-9.0 0 -9.0 -10.0q0 -8.0 5.703125 -20.1875q5.703125 -12.203125 16.203125 -25.296875q10.5 -13.109375 23.390625 -24.609375q12.90625 -11.5 29.203125 -19.0q16.296875 -7.5 31.90625 -7.5q13.796875 0 13.796875 13.59375q0 9.609375 -6.609375 24.609375q-6.59375 15.0 -16.0 29.59375q-18.59375 29.0 -34.59375 48.796875l-6.59375 8.0l90.0 -87.59375q5.390625 -5.0 6.0 -5.0q1.390625 0 1.390625 1.703125q0 1.6875 -3.796875 5.6875q-32.796875 52.0 -56.40625 94.609375l-0.59375 2.203125q15.0 -17.8125 45.203125 -47.203125q30.203125 -29.40625 51.0 -47.796875q20.796875 -18.40625 40.796875 -31.609375q20.0 -13.203125 30.203125 -13.203125q3.0 0 3.0 3.203125q0 0.796875 -1.3125 1.609375q-1.296875 0.796875 -8.09375 5.796875q-19.796875 14.0 -20.0 13.796875q-0.59375 0 -0.59375 -0.40625l0.390625 -1.1875q0 -0.8125 -1.0 -0.8125q-7.796875 0 -30.5 17.8125q-22.6875 17.796875 -47.796875 42.0q-25.09375 24.1875 -48.203125 48.59375q-23.09375 24.40625 -32.890625 37.59375q-1.796875 2.203125 -3.203125 2.203125q-1.40625 0 -1.40625 -0.90625q0 -0.890625 1.40625 -3.484375zm109.20003 -79.0q-3.40625 0 -3.40625 -3.09375q0 -3.109375 3.0 -5.90625q3.0 -2.8125 5.09375 -2.8125q2.109375 0 3.203125 1.203125q1.109375 1.203125 1.109375 2.8125q0 1.59375 -2.796875 4.703125q-2.796875 3.09375 -6.203125 3.09375zm-50.59375 63.1875q2.1875 -5.0 17.6875 -22.796875q15.5 -17.796875 23.5 -25.796875q1.203125 -1.59375 1.203125 -2.296875q0 -0.703125 -1.59375 -0.90625l-4.609375 -0.390625q-1.59375 0 -3.0 1.59375q-13.59375 13.796875 -25.703125 30.109375q-12.09375 16.296875 -12.09375 20.203125q0 3.890625 2.40625 3.890625q3.203125 0 13.0 -5.296875q9.796875 -5.3125 18.0 -10.703125l8.203125 -5.40625l-0.203125 -2.59375q-32.203125 21.203125 -35.796875 21.203125q-1.0 0 -1.0 -0.8125zm144.99062 -128.1875q-6.0 0 -44.203125 38.40625q-38.187485 38.390625 -57.999985 65.78125q18.40625 -14.0 60.499985 -54.890625q42.109375 -40.90625 42.109375 -48.703125q0 -0.40625 -0.40625 -0.59375zm3.796875 -3.609375q1.8125 0 1.8125 2.203125q0 9.59375 -42.90625 51.09375q-42.906235 41.5 -68.093735 59.109375q-8.8125 12.59375 -8.8125 18.203125q0 1.796875 0.8125 1.796875q8.1875 0 29.390625 -13.203125l11.999985 -7.796875l0.203125 2.59375q-4.9999847 3.203125 -11.406235 7.203125q-23.1875 14.40625 -32.1875 14.40625q-2.40625 0 -2.40625 -3.8125q0 -11.59375 16.203125 -34.296875q16.203125 -22.703125 37.093735 -44.0q20.90625 -21.296875 41.0 -37.390625q20.109375 -16.109375 27.296875 -16.109375zm32.403137 3.609375q-6.0 0 -44.203125 38.40625q-38.1875 38.390625 -58.0 65.78125q18.40625 -14.0 60.5 -54.890625q42.109375 -40.90625 42.109375 -48.703125q0 -0.40625 -0.40625 -0.59375zm3.796875 -3.609375q1.8125 0 1.8125 2.203125q0 9.59375 -42.90625 51.09375q-42.90625 41.5 -68.09375 59.109375q-8.812485 12.59375 -8.812485 18.203125q0 1.796875 0.8125 1.796875q8.187485 0 29.39061 -13.203125l12.0 -7.796875l0.203125 2.59375q-5.0 3.203125 -11.40625 7.203125q-23.1875 14.40625 -32.187485 14.40625q-2.40625 0 -2.40625 -3.8125q0 -11.59375 16.20311 -34.296875q16.203125 -22.703125 37.09375 -44.0q20.90625 -21.296875 41.0 -37.390625q20.109375 -16.109375 27.296875 -16.109375zm-32.393738 68.609375q-3.40625 0 -3.40625 -3.09375q0 -3.109375 3.0 -5.90625q3.0 -2.8125 5.09375 -2.8125q2.109375 0 3.203125 1.203125q1.109375 1.203125 1.109375 2.8125q0 1.59375 -2.796875 4.703125q-2.796875 3.09375 -6.203125 3.09375zm-50.59375 63.1875q2.1875 -5.0 17.6875 -22.796875q15.5 -17.796875 23.5 -25.796875q1.203125 -1.59375 1.203125 -2.296875q0 -0.703125 -1.59375 -0.90625l-4.609375 -0.390625q-1.59375 0 -3.0 1.59375q-13.59375 13.796875 -25.703125 30.109375q-12.09375 16.296875 -12.09375 20.203125q0 3.890625 2.40625 3.890625q3.203125 0 13.0 -5.296875q9.796875 -5.3125 18.0 -10.703125l8.203125 -5.40625l-0.203125 -2.59375q-32.203125 21.203125 -35.796875 21.203125q-1.0 0 -1.0 -0.8125zm95.99063 -20.390625l0.203125 2.59375q-32.203125 21.40625 -39.203125 21.40625q-1.203125 0 -1.203125 -1.40625q0 -4.203125 3.203125 -12.0l1.0 -2.796875q0 -0.40625 -0.703125 -0.40625q-0.6875 0 -11.6875 8.0q-10.8125 8.0 -14.109375 8.0q-3.296875 0 -3.296875 -6.0q0 -16.59375 18.890625 -32.390625q18.90625 -15.796875 45.515625 -15.796875q2.390625 0 2.390625 2.0q0 2.0 -18.796875 23.296875q-18.796875 21.296875 -18.796875 25.703125q0 0.796875 1.1875 0.796875q1.203125 0 10.203125 -5.203125q9.0 -5.203125 17.0 -10.40625l8.203125 -5.390625zm-31.796875 0.203125q3.40625 -2.609375 13.203125 -13.796875q9.796875 -11.203125 9.796875 -13.015625q0 -0.796875 -1.59375 -0.796875q-9.203125 0 -21.40625 8.5q-12.203125 8.5 -20.703125 19.3125q-8.5 10.796875 -8.5 17.390625q0 1.203125 1.203125 1.203125q1.203125 0 3.890625 -1.5q2.703125 -1.5 6.609375 -4.203125q3.90625 -2.703125 6.703125 -4.703125q9.59375 -7.203125 10.796875 -8.390625zm29.59375 3.796875l-0.59375 -2.203125l8.40625 -5.796875q9.0 -6.0 12.390625 -9.0q3.40625 -3.0 4.90625 -4.09375q1.5 -1.109375 3.390625 -3.3125q1.90625 -2.203125 2.3125 -2.59375q0 0 2.390625 -3.203125q2.0 -2.40625 2.203125 -2.796875q3.203125 0.796875 3.203125 4.796875q-5.609375 8.40625 -16.40625 20.8125q-10.796875 12.390625 -10.796875 12.890625q0 0.5 0.296875 0.5q0.296875 0 3.0 -2.09375q2.703125 -2.109375 14.703125 -10.515625q24.40625 -16.796875 33.0 -22.59375q3.40625 -2.796875 4.703125 -2.796875q1.296875 0 2.1875 0.90625q0.90625 0.890625 0.90625 2.5q0 1.59375 -3.203125 6.59375q-3.1875 5.0 -6.796875 9.59375q-9.390625 12.0 -11.59375 14.203125q-1.0 1.59375 -1.0 1.90625q0 0.296875 0.203125 0.296875q1.390625 0 44.390625 -31.40625q7.0 -5.0 9.40625 -5.0q1.796875 0 1.796875 3.90625q0 3.890625 -6.0 11.703125q-6.0 7.796875 -13.203125 14.390625q-19.203125 17.609375 -19.203125 19.40625q0 0.203125 0.8125 0.203125q2.390625 0 27.0 -15.8125l8.1875 -5.390625l0.203125 2.59375q-32.203125 21.40625 -39.203125 21.40625q-1.1875 0 -1.1875 -1.203125q0 -7.40625 9.296875 -17.5q9.296875 -10.09375 18.5 -18.1875q9.203125 -8.109375 9.203125 -10.71875q0 -0.390625 -0.3125 -0.390625q-0.296875 0 -1.296875 0.609375q-1.0 0.59375 -25.109375 17.59375q-24.09375 17.0 -28.09375 19.90625q-4.0 2.890625 -9.796875 8.6875q-2.0 1.59375 -6.203125 1.59375q-4.1875 0 -4.1875 -0.890625q0 -0.90625 1.59375 -2.5q12.0 -12.0 25.703125 -27.203125q13.703125 -15.203125 14.296875 -16.40625q0 -0.59375 -0.59375 -0.59375q-2.0 0 -24.609375 15.90625q-22.59375 15.890625 -26.203125 18.5q-9.390625 7.0 -9.890625 7.296875q-0.5 0.296875 -2.109375 2.09375q-3.59375 3.796875 -6.59375 3.796875q-3.0 -0.796875 -3.203125 -1.1875q4.609375 -5.203125 22.796875 -27.8125l-14.0 8.609375zm143.4125 18.796875q-4.609375 0 -5.40625 -2.40625q0 -2.59375 17.203125 -23.1875q17.203125 -20.609375 37.796875 -44.703125q20.59375 -24.109375 37.796875 -49.0q17.203125 -24.90625 17.203125 -35.109375q0 -6.390625 -6.59375 -6.390625q-10.8125 0 -22.8125 5.703125q-12.0 5.6875 -22.5 14.796875q-10.5 9.09375 -20.296875 20.296875q-9.796875 11.203125 -16.59375 22.203125q-15.40625 24.0 -15.40625 35.0q0 5.796875 4.796875 5.796875q6.609375 0 21.40625 -11.203125q14.796875 -11.203125 26.203125 -22.390625l11.390625 -11.0q0.40625 -0.40625 1.296875 -0.40625q0.90625 0 0.90625 0.59375l-0.390625 0.8125q-1.8125 1.796875 -4.90625 5.0q-3.09375 3.1875 -11.703125 11.09375q-8.59375 7.90625 -16.09375 14.0q-7.5 6.09375 -16.109375 11.09375q-8.59375 5.0 -13.59375 5.0q-7.203125 0 -7.203125 -8.6875q0 -8.703125 5.09375 -21.203125q5.109375 -12.5 14.8125 -26.09375q9.703125 -13.609375 21.796875 -25.609375q12.09375 -12.0 27.890625 -19.796875q15.8125 -7.796875 31.40625 -7.796875q4.0 0 7.796875 2.90625q3.8125 2.890625 3.8125 8.796875q0 5.890625 -4.3125 15.5q-4.296875 9.59375 -12.90625 22.390625q-8.59375 12.796875 -15.890625 23.109375q-7.296875 10.296875 -19.40625 25.09375q-12.09375 14.796875 -16.890625 20.5q-4.796875 5.703125 -14.203125 16.890625q0.203125 0.203125 1.796875 -1.0q85.203125 -77.1875 96.203125 -86.984375q11.0 -9.8125 11.890625 -10.8125q0.90625 -1.0 1.3125 -1.390625q1.59375 -1.609375 4.09375 -1.609375q2.5 0 2.5 2.40625q0 6.0 -17.5 30.40625q-17.5 24.390625 -34.90625 46.59375q-17.390625 22.203125 -17.390625 23.0l0.203125 0.203125q12.203125 -10.609375 50.09375 -45.90625q37.90625 -35.296875 66.203125 -60.890625q28.296875 -25.609375 31.5 -25.609375q2.203125 0 2.203125 2.796875q0 5.40625 -9.109375 19.203125q-9.09375 13.796875 -32.484375 43.40625q-1.0 1.1875 -32.40625 38.796875q-69.203125 82.59375 -69.203125 95.390625q0 0.8125 1.296875 0.8125q1.3125 0 10.0 -4.5q8.703125 -4.5 12.09375 -7.5q3.40625 -3.0 4.0 -3.0q0.609375 0 0.609375 0.890625q0 0.90625 -0.390625 1.296875q-2.203125 2.8125 -13.515625 9.203125q-11.296875 6.40625 -14.296875 6.40625q-3.0 0 -3.0 -2.609375q0 -12.59375 21.40625 -44.390625q33.59375 -50.203125 81.40625 -103.0q6.0 -6.796875 22.1875 -26.796875q16.203125 -20.0 16.203125 -21.609375q0 -0.390625 -0.203125 -0.390625q-1.1875 0 -73.890625 66.796875q-72.703125 66.796875 -94.109375 87.203125q-2.390625 2.390625 -4.59375 2.390625q-5.796875 0 -5.796875 -1.390625q0 -1.40625 2.796875 -4.90625q2.796875 -3.5 30.0 -36.703125q64.0 -78.203125 64.0 -82.0l-0.203125 -0.203125q-1.796875 0.8125 -52.390625 46.8125q-74.0 66.796875 -84.0 77.59375zm186.3938 -65.59375q-3.40625 0 -3.40625 -3.09375q0 -3.109375 3.0 -5.90625q3.0 -2.8125 5.09375 -2.8125q2.109375 0 3.203125 1.203125q1.109375 1.203125 1.109375 2.8125q0 1.59375 -2.796875 4.703125q-2.796875 3.09375 -6.203125 3.09375zm-50.59375 63.1875q2.1875 -5.0 17.6875 -22.796875q15.5 -17.796875 23.5 -25.796875q1.203125 -1.59375 1.203125 -2.296875q0 -0.703125 -1.59375 -0.90625l-4.609375 -0.390625q-1.59375 0 -3.0 1.59375q-13.59375 13.796875 -25.703125 30.109375q-12.09375 16.296875 -12.09375 20.203125q0 3.890625 2.40625 3.890625q3.203125 0 13.0 -5.296875q9.796875 -5.3125 18.0 -10.703125l8.203125 -5.40625l-0.203125 -2.59375q-32.203125 21.203125 -35.796875 21.203125q-1.0 0 -1.0 -0.8125zm68.6001 -46.796875q1.390625 -2.0 2.984375 -2.0q1.609375 0 3.40625 3.0q0 3.609375 -18.109375 23.609375q-18.09375 20.0 -18.09375 21.796875q0 0.390625 1.203125 0.390625q1.203125 0 14.0 -8.1875q12.796875 -8.203125 19.609375 -13.609375q10.796875 -8.796875 19.796875 -19.59375l3.59375 -4.609375q4.796875 -4.390625 8.40625 -4.390625q0.203125 0 0.390625 0q3.8125 0.203125 3.8125 1.0l-0.203125 0.390625q-6.609375 7.609375 -22.40625 26.8125q-15.796875 19.1875 -18.0 23.0q1.609375 0 10.796875 -5.203125q9.203125 -5.203125 17.609375 -10.609375l8.203125 -5.1875l0.1875 2.390625q-12.796875 8.796875 -24.0 14.796875l-18.1875 9.40625q-15.8125 21.40625 -39.5 45.90625q-23.703125 24.5 -27.90625 24.5q-4.203125 0 -4.203125 -2.8125q0 -9.796875 9.0 -20.59375q10.40625 -12.203125 18.90625 -19.203125q8.5 -7.0 12.703125 -10.390625q15.0 -11.609375 20.59375 -15.609375q8.203125 -10.0 12.203125 -14.390625q8.390625 -9.8125 14.390625 -17.0l-2.390625 1.59375q-2.796875 1.796875 -4.40625 2.796875q-30.203125 21.609375 -36.203125 21.609375q-2.390625 0 -2.390625 -2.703125q0 -2.703125 2.390625 -7.203125q2.40625 -4.5 4.609375 -7.5q2.203125 -3.0 6.203125 -7.703125q4.0 -4.703125 4.1875 -4.890625l-17.0 10.796875l-0.59375 -2.203125l7.59375 -5.203125q14.203125 -9.796875 18.5 -13.5q4.3125 -3.703125 8.3125 -9.5zm-70.8125 119.0q1.203125 0 13.515625 -14.0q12.296875 -14.0 24.09375 -28.0l11.59375 -14.203125q0 -0.390625 -0.390625 -0.390625q-49.40625 36.0 -49.40625 55.390625q0 1.203125 0.59375 1.203125zm166.8031 -92.59375l0.203125 2.59375q-32.203125 21.40625 -39.203125 21.40625q-1.203125 0 -1.203125 -1.40625q0 -4.203125 3.203125 -12.0l1.0 -2.796875q0 -0.40625 -0.703125 -0.40625q-0.6875 0 -11.6875 8.0q-10.8125 8.0 -14.109375 8.0q-3.296875 0 -3.296875 -6.0q0 -16.59375 18.890625 -32.390625q18.90625 -15.796875 45.515625 -15.796875q2.390625 0 2.390625 2.0q0 2.0 -18.796875 23.296875q-18.796875 21.296875 -18.796875 25.703125q0 0.796875 1.1875 0.796875q1.203125 0 10.203125 -5.203125q9.0 -5.203125 17.0 -10.40625l8.203125 -5.390625zm-31.796875 0.203125q3.40625 -2.609375 13.203125 -13.796875q9.796875 -11.203125 9.796875 -13.015625q0 -0.796875 -1.59375 -0.796875q-9.203125 0 -21.40625 8.5q-12.203125 8.5 -20.703125 19.3125q-8.5 10.796875 -8.5 17.390625q0 1.203125 1.203125 1.203125q1.203125 0 3.890625 -1.5q2.703125 -1.5 6.609375 -4.203125q3.90625 -2.703125 6.703125 -4.703125q9.59375 -7.203125 10.796875 -8.390625zm61.203125 2.1875q-31.40625 21.40625 -40.0 21.40625q-2.203125 0 -2.203125 -1.40625q0 -5.59375 14.390625 -25.390625q14.40625 -19.796875 33.203125 -42.0q-19.1875 -0.40625 -23.59375 -0.40625q-4.40625 0 -4.40625 -2.203125q0 -0.796875 1.8125 -0.796875l28.59375 0.609375q24.40625 -28.609375 27.0 -28.609375q5.40625 0 5.40625 1.703125q0 1.703125 -22.203125 27.09375l33.59375 0.609375q2.609375 0 2.609375 0.703125q0 0.6875 -0.8125 0.890625q-1.1875 0.609375 -19.796875 0.609375l-18.0 0q-13.0 14.796875 -19.0 21.5q-6.0 6.6875 -15.59375 17.890625q-17.796875 20.796875 -17.796875 24.796875q0 0.8125 1.5 0.8125q1.5 0 10.09375 -4.703125q8.59375 -4.703125 13.0 -7.90625l12.0 -7.390625l0.203125 2.1875zm58.59375 -2.390625l0.203125 2.59375q-32.203125 21.40625 -39.203125 21.40625q-1.203125 0 -1.203125 -1.40625q0 -4.203125 3.203125 -12.0l1.0 -2.796875q0 -0.40625 -0.703125 -0.40625q-0.6875 0 -11.6875 8.0q-10.8125 8.0 -14.109375 8.0q-3.296875 0 -3.296875 -6.0q0 -16.59375 18.890625 -32.390625q18.90625 -15.796875 45.515625 -15.796875q2.390625 0 2.390625 2.0q0 2.0 -18.796875 23.296875q-18.796875 21.296875 -18.796875 25.703125q0 0.796875 1.1875 0.796875q1.203125 0 10.203125 -5.203125q9.0 -5.203125 17.0 -10.40625l8.203125 -5.390625zm-31.796875 0.203125q3.40625 -2.609375 13.203125 -13.796875q9.796875 -11.203125 9.796875 -13.015625q0 -0.796875 -1.59375 -0.796875q-9.203125 0 -21.40625 8.5q-12.203125 8.5 -20.703125 19.3125q-8.5 10.796875 -8.5 17.390625q0 1.203125 1.203125 1.203125q1.203125 0 3.890625 -1.5q2.703125 -1.5 6.609375 -4.203125q3.90625 -2.703125 6.703125 -4.703125q9.59375 -7.203125 10.796875 -8.390625z" fill-rule="nonzero"/></g></svg>