<svg version="1.1" viewBox="0.0 0.0 96.0 96.0" fill="none" stroke="none" stroke-linecap="square" stroke-miterlimit="10" xmlns:xlink="http://www.w3.org/1999/xlink" xmlns="http://www.w3.org/2000/svg"><clipPath id="g357fb98f51a_0_11.0"><path d="m0 0l96.0 0l0 96.0l-96.0 0l0 -96.0z" clip-rule="nonzero"/></clipPath><g clip-path="url(#g357fb98f51a_0_11.0)"><path fill="#000000" fill-opacity="0.0" d="m0 0l96.0 0l0 96.0l-96.0 0z" fill-rule="evenodd"/><path fill="#1a1f3d" d="m0.7559055 47.999374l0 0c0 -26.092192 21.151901 -47.244095 47.244095 -47.244095l0 0c12.529911 0 24.54663 4.9774885 33.406616 13.837475c8.859993 8.859986 13.837479 20.876709 13.837479 33.40662l0 0c0 26.092194 -21.151901 47.244095 -47.244095 47.244095l0 0c-26.092194 0 -47.244095 -21.151901 -47.244095 -47.244095z" fill-rule="evenodd"/><path fill="#000000" fill-opacity="0.0" d="m5.385823 21.259842l85.22834 0l0 53.480316l-85.22834 0z" fill-rule="evenodd"/><path fill="#ffffff" d="m37.406277 54.962498l-18.765625 0l0 8.3125l14.640625 -0.03125q1.875 -0.046875 3.0 -0.765625q1.125 -0.71875 1.125 -2.796875l0 -4.71875zm-3.125 -13.5625l-12.5625 0l0 6.234375l9.234375 0q1.53125 0 2.421875 -0.390625q0.90625 -0.40625 0.90625 -2.203125l0 -3.640625zm6.59375 12.234375q0 1.53125 -0.015625 3.09375q-0.015625 1.546875 -0.015625 3.109375q0 2.328125 -0.921875 3.34375q-0.921875 1.0156288 -2.46875 1.2500038q-1.53125 0.25 -3.40625 0.25l-18.40625 0l0 -11.078129l8.874999 0q0.6875 -2.359375 0.921875 -4.640625l-6.640625 0l0 -9.0l18.640625 0l0 5.0q0 1.71875 -0.546875 2.578125q-0.53125 0.859375 -1.578125 1.140625q-1.03125 0.28125 -2.625 0.3125l-3.203125 0q-0.359375 0.5625 -0.703125 1.1875q-0.34375 0.625 -0.703125 1.21875q-0.390625 0.59375 -0.796875 1.15625q-0.40625 0.5625 -0.875 1.078125l14.46875 0zm4.609375 -18.671875q0 0.390625 -0.421875 1.3125q-0.421875 0.921875 -1.109375 2.03125q-0.671875 1.09375 -1.4375 2.140625q-0.75 1.03125 -1.421875 1.703125q-0.65625 0.65625 -1.09375 0.65625q-0.15625 0 -0.234375 -0.171875q-0.078125 -0.1875 -0.078125 -0.359375q0 -0.3125 0.09375 -0.90625q0.09375 -0.609375 0.140625 -1.09375q0.15625 -1.03125 0.265625 -2.03125q0.125 -1.0 0.171875 -2.0l-25.0 0l0 7.0l-3.234375 0l0 -8.53125l14.234374 0q-0.15625 -1.46875 -0.359375 -2.921875q-0.203125 -1.46875 -0.359375 -2.953125q1.28125 0 2.53125 -0.015625q1.265625 -0.015625 2.46875 0.265625q0.234375 0.03125 0.40625 0.140625q0.1875 0.09375 0.1875 0.375q0 0.234375 -0.28125 0.9375q-0.265625 0.703125 -0.671875 1.5625q-0.40625 0.859375 -0.78125 1.578125q-0.375 0.71875 -0.546875 1.03125l16.28125 0q0.25 0 0.25 0.25zm20.718723 26.125l0 -12.921875l-9.890629 0l0 12.921875l9.890629 0zm0 -14.609375l0 -12.0l-9.890629 0l0 12.0l9.890629 0zm3.390625 -12.0l0 12.0l4.5625 0q0 -1.0 0.578125 -1.609375q0.578125 -0.625 1.3125 -0.625q0.671875 0 1.28125 0.578125q0.625 0.578125 0.625 1.453125q0 0.96875 -0.625 1.4375q-0.609375 0.453125 -1.328125 0.453125l-6.40625 0l0 12.921875l5.359375 0q1.84375 0 2.9375 -0.90625q1.109375 -0.90625 1.609375 -2.28125q0.5 -1.375 0.5 -2.8125q0 -5.125 0.015625 -10.265625q0.03125 -5.140625 0.03125 -10.34375l-10.453125 0zm14.046875 20.328125q0 4.03125 -2.140625 6.0625q-2.140625 2.015625 -5.9375 2.015625l-22.609379 0l0 -30.171875l30.687504 0l0 22.09375z" fill-rule="nonzero"/></g></svg>