<svg xmlns="http://www.w3.org/2000/svg" version="1.1" xmlns:xlink="http://www.w3.org/1999/xlink" xmlns:svgjs="http://svgjs.dev/svgjs" width="360" height="360"><svg version="1.1" viewBox="0.0 0.0 360.0 360.0" fill="none" stroke="none" stroke-linecap="square" stroke-miterlimit="10" xmlns:xlink="http://www.w3.org/1999/xlink" xmlns="http://www.w3.org/2000/svg"><clipPath id="SvgjsClipPath1080"><path d="m0 0l360.0 0l0 360.0l-360.0 0l0 -360.0z" clip-rule="nonzero"></path></clipPath><g clip-path="url(#p.0)"><path fill="#000000" fill-opacity="0.0" d="m0 0l360.0 0l0 360.0l-360.0 0z" fill-rule="evenodd"></path><path fill="#202c3b" d="m0 180.0l0 0c0 -99.411255 80.588745 -180.0 180.0 -180.0l0 0c47.738968 0 93.522675 18.964231 127.279236 52.72078c33.75653 33.756546 52.720764 79.54025 52.720764 127.27922l0 0c0 99.411255 -80.588745 180.0 -180.0 180.0l0 0c-99.411255 0 -180.0 -80.588745 -180.0 -180.0z" fill-rule="evenodd"></path><path fill="#000000" fill-opacity="0.0" d="m0.015748031 0.015748031l360.0 0l0 360.0l-360.0 0z" fill-rule="evenodd"></path><path fill="#ffffff" d="m134.00002 209.37013l-67.421875 0l0 31.890625l54.421875 -0.15625q6.65625 0 9.828125 -3.578125q3.171875 -3.5625 3.171875 -10.0625l0 -18.09375zm-13.640625 -54.09375l-40.765625 0l0 24.421875l30.765625 0q5.078125 0 7.53125 -1.8125q2.46875 -1.828125 2.46875 -7.234375l0 -15.375zm33.15625 47.109375q0 6.34375 -0.078125 12.78125q-0.078125 6.421875 -0.078125 12.921875q0 9.046875 -3.734375 13.40625q-3.71875 4.359375 -9.984375 5.703125q-6.265625 1.359375 -13.890625 1.359375l-76.625 0l0 -46.328125l35.0625 0q1.109375 -3.8125 1.984375 -7.6875q0.875 -3.890625 1.34375 -7.859375l-24.421875 0l0 -38.875l75.359375 0l0 20.953125q0 6.96875 -2.546875 10.703125q-2.53125 3.734375 -6.828125 5.15625q-4.28125 1.421875 -9.4375 1.671875q-5.15625 0.234375 -10.390625 0.234375q-5.078125 8.5625 -12.21875 15.859375l56.484375 0zm19.671875 -72.65625q0 2.0625 -1.984375 6.03125q-1.96875 3.953125 -5.234375 8.484375q-3.25 4.515625 -6.90625 8.640625q-3.640625 4.125 -6.890625 6.828125q-3.25 2.6875 -5.46875 2.6875q-3.015625 0 -3.015625 -2.84375q0 -2.0625 0.3125 -3.96875q0.3125 -1.90625 0.484375 -3.96875q0.46875 -4.125 1.015625 -8.40625q0.5625 -4.28125 1.046875 -8.40625l-92.34375 0l0 27.921875l-18.5625 0l0 -35.703125l55.375 0q-1.109375 -6.03125 -2.0625 -12.140625q-0.953125 -6.109375 -1.90625 -12.125q6.34375 0.3125 12.6875 0.71875q6.34375 0.390625 12.6875 1.171875q1.59375 0.171875 2.375 0.484375q0.796875 0.3125 0.796875 2.21875q0 0.953125 -0.875 3.65625q-0.859375 2.6875 -2.0625 5.9375q-1.1875 3.25 -2.296875 6.03125q-1.109375 2.78125 -1.578125 4.046875l61.390625 0q3.015625 0 3.015625 2.703125zm75.53136 103.59375l0 -49.5l-31.890625 0l0 49.5l31.890625 0zm0 -58.0625l0 -46.171875l-31.890625 0l0 46.171875l31.890625 0zm54.09375 -46.171875l-34.578125 0l0 46.171875l11.734375 0q0.46875 -3.65625 2.84375 -6.265625q2.390625 -2.625 6.203125 -2.625q3.484375 0 6.5 2.390625q3.015625 2.375 3.015625 6.015625q0 4.453125 -2.9375 6.75q-2.9375 2.296875 -7.0625 2.296875l-20.296875 0l0 49.5l17.765625 0q6.03125 0 9.75 -3.71875q3.734375 -3.734375 5.390625 -9.125q1.671875 -5.390625 1.671875 -10.46875l0 -80.921875zm20.15625 79.8125q0 17.125 -9.046875 24.90625q-9.046875 7.765625 -25.546875 7.765625l-90.59375 0l0 -120.890625l125.1875 0l0 88.21875z" fill-rule="nonzero"></path></g></svg><style>@media (prefers-color-scheme: light) { :root { filter: none; } }
@media (prefers-color-scheme: dark) { :root { filter: none; } }
</style></svg>