<svg version="1.1" viewBox="0.0 0.0 720.0 240.0" fill="none" stroke="none" stroke-linecap="square" stroke-miterlimit="10" xmlns:xlink="http://www.w3.org/1999/xlink" xmlns="http://www.w3.org/2000/svg"><clipPath id="p.0"><path d="m0 0l720.0 0l0 240.0l-720.0 0l0 -240.0z" clip-rule="nonzero"/></clipPath><g clip-path="url(#p.0)"><path fill="#000000" fill-opacity="0.0" d="m0 0l720.0 0l0 240.0l-720.0 0z" fill-rule="evenodd"/><path fill="#000000" fill-opacity="0.0" d="m0 0l720.0 0l0 240.0l-720.0 0z" fill-rule="evenodd"/><path fill="#1a1f3d" d="m88.0795 184.70001l45.6875 -79.578125q0 -0.453125 -0.46875 -0.453125q-44.0 40.484375 -59.9375 59.1875q-2.15625 2.453125 -10.671875 10.890625q-8.5 8.421875 -10.265625 9.796875q-1.765625 1.390625 -6.203125 2.15625q-0.921875 0 -0.921875 -1.078125q0 -1.0625 12.1875 -15.703125q12.1875 -14.65625 26.75 -32.515625q14.5625 -17.859375 26.75 -38.09375q12.203125 -20.25 12.203125 -31.28125q0 -6.4375 -6.59375 -6.4375q-11.203125 0 -25.546875 9.046875q-14.328125 9.03125 -25.75 21.15625q-11.421875 12.109375 -19.390625 24.609375q-7.96875 12.484375 -7.96875 19.390625q0 4.296875 5.046875 4.296875q5.0625 0 11.734375 -3.375q6.671875 -3.375 12.65625 -8.28125q12.109375 -9.96875 19.78125 -18.09375l3.0625 -3.375q0.609375 -0.453125 1.0625 -0.453125q0.46875 0 0.46875 0.921875q-19.171875 21.609375 -37.40625 30.96875q-7.359375 3.671875 -13.03125 3.671875q-6.90625 0 -6.90625 -7.65625q0 -6.140625 4.359375 -15.484375q4.375 -9.359375 12.421875 -19.390625q8.0625 -10.046875 17.953125 -18.859375q9.890625 -8.828125 22.375 -14.578125q12.5 -5.75 24.46875 -5.75q10.578125 0 10.578125 10.421875q0 7.359375 -5.0625 18.859375q-5.0625 11.5 -12.265625 22.703125q-14.265625 22.234375 -26.53125 37.40625l-5.0625 6.140625l69.0 -67.171875q4.140625 -3.828125 4.609375 -3.828125q1.0625 0 1.0625 1.3125q0 1.296875 -2.90625 4.359375q-25.15625 39.875 -43.25 72.53125l-0.453125 1.6875q11.5 -13.65625 34.65625 -36.1875q23.15625 -22.546875 39.09375 -36.640625q15.953125 -14.109375 31.28125 -24.234375q15.328125 -10.125 23.15625 -10.125q2.296875 0 2.296875 2.453125q0 0.625 -1.0 1.234375q-1.0 0.609375 -6.203125 4.453125q-15.1875 10.71875 -15.34375 10.578125q-0.453125 0 -0.453125 -0.3125l0.3125 -0.921875q0 -0.609375 -0.765625 -0.609375q-5.984375 0 -23.390625 13.65625q-17.40625 13.640625 -36.65625 32.1875q-19.234375 18.546875 -36.953125 37.265625q-17.703125 18.703125 -25.203125 28.8125q-1.390625 1.6875 -2.46875 1.6875q-1.0625 0 -1.0625 -0.6875q0 -0.6875 1.078125 -2.6875zm83.70625 -60.5625q-2.609375 0 -2.609375 -2.375q0 -2.375 2.296875 -4.515625q2.3125 -2.15625 3.921875 -2.15625q1.609375 0 2.453125 0.921875q0.84375 0.921875 0.84375 2.15625q0 1.21875 -2.15625 3.59375q-2.140625 2.375 -4.75 2.375zm-38.78125 48.453125q1.6875 -3.828125 13.5625 -17.46875q11.890625 -13.65625 18.015625 -19.78125q0.921875 -1.234375 0.921875 -1.765625q0 -0.546875 -1.234375 -0.6875l-3.515625 -0.3125q-1.234375 0 -2.296875 1.21875q-10.4375 10.59375 -19.71875 23.09375q-9.265625 12.484375 -9.265625 15.484375q0 2.984375 1.84375 2.984375q2.453125 0 9.953125 -4.0625q7.515625 -4.0625 13.8125 -8.203125l6.28125 -4.140625l-0.15625 -2.0q-24.6875 16.25 -27.4375 16.25q-0.765625 0 -0.765625 -0.609375zm111.161316 -98.28125q-4.609375 0 -33.890625 29.4375q-29.28125 29.4375 -44.46875 50.453125q14.109375 -10.734375 46.375 -42.09375q32.28125 -31.359375 32.28125 -37.34375q0 -0.296875 -0.296875 -0.453125zm2.90625 -2.765625q1.375 0 1.375 1.6875q0 7.359375 -32.890625 39.1875q-32.875 31.8125 -52.203125 45.296875q-6.75 9.671875 -6.75 13.953125q0 1.390625 0.625 1.390625q6.28125 0 22.53125 -10.125l9.203125 -5.984375l0.15625 2.0q-3.84375 2.453125 -8.75 5.515625q-17.78125 11.046875 -24.671875 11.046875q-1.84375 0 -1.84375 -2.921875q0 -8.890625 12.421875 -26.296875q12.421875 -17.40625 28.4375 -33.734375q16.015625 -16.328125 31.421875 -28.671875q15.421875 -12.34375 20.9375 -12.34375zm24.846146 2.765625q-4.609375 0 -33.890625 29.4375q-29.28125 29.4375 -44.46875 50.453125q14.109375 -10.734375 46.375 -42.09375q32.28125 -31.359375 32.28125 -37.34375q0 -0.296875 -0.296875 -0.453125zm2.90625 -2.765625q1.375 0 1.375 1.6875q0 7.359375 -32.890625 39.1875q-32.875 31.8125 -52.203125 45.296875q-6.75 9.671875 -6.75 13.953125q0 1.390625 0.625 1.390625q6.28125 0 22.53125 -10.125l9.203125 -5.984375l0.15625 2.0q-3.84375 2.453125 -8.75 5.515625q-17.78125 11.046875 -24.671875 11.046875q-1.84375 0 -1.84375 -2.921875q0 -8.890625 12.421875 -26.296875q12.421875 -17.40625 28.4375 -33.734375q16.015625 -16.328125 31.421875 -28.671875q15.421875 -12.34375 20.9375 -12.34375zm-24.841354 52.59375q-2.609375 0 -2.609375 -2.375q0 -2.375 2.296875 -4.515625q2.3125 -2.15625 3.921875 -2.15625q1.609375 0 2.4531097 0.921875q0.84375 0.921875 0.84375 2.15625q0 1.21875 -2.1562347 3.59375q-2.140625 2.375 -4.75 2.375zm-38.78125 48.453125q1.6875 -3.828125 13.5625 -17.46875q11.890625 -13.65625 18.015625 -19.78125q0.921875 -1.234375 0.921875 -1.765625q0 -0.546875 -1.234375 -0.6875l-3.515625 -0.3125q-1.234375 0 -2.296875 1.21875q-10.4375 10.59375 -19.71875 23.09375q-9.265625 12.484375 -9.265625 15.484375q0 2.984375 1.84375 2.984375q2.453125 0 9.953125 -4.0625q7.515625 -4.0625 13.8125 -8.203125l6.28125 -4.140625l-0.15625 -2.0q-24.6875 16.25 -27.4375 16.25q-0.765625 0 -0.765625 -0.609375zm73.583176 -15.640625l0.15625 2.0q-24.6875 16.40625 -30.04686 16.40625q-0.921875 0 -0.921875 -1.078125q0 -3.21875 2.4531097 -9.203125l0.765625 -2.140625q0 -0.3125 -0.546875 -0.3125q-0.53125 0 -8.95311 6.140625q-8.28125 6.125 -10.8125 6.125q-2.53125 0 -2.53125 -4.59375q0 -12.71875 14.484375 -24.828125q14.499985 -12.125 34.89061 -12.125q1.84375 0 1.84375 1.53125q0 1.53125 -14.421875 17.859375q-14.40625 16.328125 -14.40625 19.703125q0 0.625 0.90625 0.625q0.921875 0 7.828125 -3.984375q6.90625 -4.0 13.03125 -7.984375l6.28125 -4.140625zm-24.375 0.15625q2.609375 -2.0 10.125 -10.578125q7.515625 -8.59375 7.515625 -9.96875q0 -0.609375 -1.234375 -0.609375q-7.046875 0 -16.40625 6.515625q-9.343735 6.515625 -15.85936 14.796875q-6.515625 8.28125 -6.515625 13.34375q0 0.90625 0.90625 0.90625q0.921875 0 2.984375 -1.140625q2.078125 -1.15625 5.0625 -3.21875q3.0 -2.078125 5.140625 -3.609375q7.3593597 -5.515625 8.281235 -6.4375zm22.700562 2.921875l-0.46875 -1.6875l6.4375 -4.453125q6.90625 -4.59375 9.515625 -6.890625q2.609375 -2.3125 3.75 -3.15625q1.15625 -0.84375 2.609375 -2.53125q1.453125 -1.6875 1.765625 -1.984375q0 0 1.84375 -2.453125q1.53125 -1.84375 1.6875 -2.15625q2.453125 0.625 2.453125 3.6875q-4.296875 6.4375 -12.578125 15.953125q-8.28125 9.5 -8.28125 9.890625q0 0.375 0.21875 0.375q0.234375 0 2.296875 -1.609375q2.078125 -1.609375 11.28125 -8.046875q18.703125 -12.890625 25.296875 -17.328125q2.609375 -2.15625 3.609375 -2.15625q1.0 0 1.6875 0.703125q0.6875 0.6875 0.6875 1.921875q0 1.21875 -2.453125 5.046875q-2.453125 3.828125 -5.21875 7.359375q-7.203125 9.203125 -8.890625 10.890625q-0.765625 1.21875 -0.765625 1.453125q0 0.234375 0.15625 0.234375q1.078125 0 34.03125 -24.078125q5.375 -3.828125 7.21875 -3.828125q1.375 0 1.375 3.0q0 2.984375 -4.609375 8.96875q-4.59375 5.96875 -10.109375 11.03125q-14.71875 13.484375 -14.71875 14.875q0 0.140625 0.609375 0.140625q1.84375 0 20.703125 -12.109375l6.28125 -4.140625l0.15625 2.0q-24.6875 16.40625 -30.046875 16.40625q-0.921875 0 -0.921875 -0.921875q0 -5.671875 7.125 -13.40625q7.125 -7.75 14.171875 -13.953125q7.0625 -6.21875 7.0625 -8.21875q0 -0.296875 -0.234375 -0.296875q-0.21875 0 -0.984375 0.46875q-0.765625 0.453125 -19.25 13.484375q-18.46875 13.03125 -21.546875 15.25q-3.0625 2.21875 -7.5 6.671875q-1.53125 1.21875 -4.765625 1.21875q-3.21875 0 -3.21875 -0.6875q0 -0.6875 1.234375 -1.90625q9.203125 -9.203125 19.703125 -20.859375q10.5 -11.65625 10.953125 -12.578125q0 -0.453125 -0.453125 -0.453125q-1.53125 0 -18.859375 12.1875q-17.328125 12.1875 -20.078125 14.1875q-7.21875 5.359375 -7.609375 5.59375q-0.375 0.234375 -1.59375 1.609375q-2.765625 2.90625 -5.0625 2.90625q-2.296875 -0.609375 -2.453125 -0.90625q3.53125 -4.0 17.484375 -21.3125l-10.734375 6.59375zm109.93234 14.40625q-3.53125 0 -4.140625 -1.84375q0 -1.984375 13.1875 -17.78125q13.1875 -15.796875 28.96875 -34.265625q15.796875 -18.484375 28.984375 -37.5625q13.1875 -19.09375 13.1875 -26.921875q0 -4.90625 -5.0625 -4.90625q-8.28125 0 -17.484375 4.375q-9.1875 4.375 -17.25 11.359375q-8.046875 6.96875 -15.5625 15.5625q-7.5 8.578125 -12.71875 17.0q-11.796875 18.40625 -11.796875 26.84375q0 4.4375 3.671875 4.4375q5.0625 0 16.40625 -8.578125q11.34375 -8.59375 20.09375 -17.171875l8.734375 -8.4375q0.3125 -0.3125 1.0 -0.3125q0.6875 0 0.6875 0.46875l-0.3125 0.609375q-1.375 1.375 -3.75 3.828125q-2.375 2.453125 -8.96875 8.515625q-6.59375 6.0625 -12.34375 10.734375q-5.75 4.671875 -12.34375 8.515625q-6.59375 3.828125 -10.421875 3.828125q-5.53125 0 -5.53125 -6.671875q0 -6.671875 3.90625 -16.25q3.921875 -9.59375 11.359375 -20.015625q7.4375 -10.421875 16.703125 -19.625q9.28125 -9.203125 21.390625 -15.171875q12.109375 -5.984375 24.078125 -5.984375q3.0625 0 5.96875 2.21875q2.921875 2.21875 2.921875 6.75q0 4.515625 -3.296875 11.875q-3.296875 7.359375 -9.890625 17.1875q-6.59375 9.8125 -12.1875 17.703125q-5.59375 7.890625 -14.875 19.25q-9.28125 11.34375 -12.96875 15.71875q-3.671875 4.359375 -10.875 12.9375q0.15625 0.15625 1.390625 -0.765625q65.3125 -59.171875 73.734375 -66.6875q8.4375 -7.515625 9.125 -8.28125q0.703125 -0.765625 1.0 -1.078125q1.234375 -1.21875 3.140625 -1.21875q1.921875 0 1.921875 1.828125q0 4.609375 -13.421875 23.3125q-13.40625 18.703125 -26.75 35.734375q-13.34375 17.015625 -13.34375 17.625l0.15625 0.15625q9.359375 -8.125 38.40625 -35.1875q29.06253 -27.0625 50.75003 -46.6875q21.703125 -19.625 24.15625 -19.625q1.6875 0 1.6875 2.140625q0 4.140625 -6.984375 14.71875q-6.96875 10.578125 -24.90625 33.265625q-0.765625 0.921875 -24.84378 29.75q-53.046875 63.328125 -53.046875 73.140625q0 0.609375 0.984375 0.609375q1.0 0 7.671875 -3.453125q6.671875 -3.4375 9.28125 -5.75q2.609375 -2.296875 3.0625 -2.296875q0.46875 0 0.46875 0.6875q0 0.703125 -0.3125 1.0q-1.6875 2.15625 -10.359375 7.0625q-8.65625 4.90625 -10.953125 4.90625q-2.296875 0 -2.296875 -2.0q0 -9.65625 16.40625 -34.046875q25.75 -38.484375 62.40628 -78.953125q4.59375 -5.21875 17.015625 -20.546875q12.421875 -15.328125 12.421875 -16.5625q0 -0.3125 -0.15625 -0.3125q-0.921875 0 -56.65628 51.21875q-55.734375 51.21875 -72.140625 66.84375q-1.84375 1.84375 -3.53125 1.84375q-4.4375 0 -4.4375 -1.0625q0 -1.078125 2.140625 -3.765625q2.15625 -2.6875 23.0 -28.140625q49.0625 -59.9375 49.0625 -62.859375l-0.15625 -0.15625q-1.375 0.609375 -40.171875 35.875q-56.71875 51.21875 -64.390625 59.5zm142.89719 -50.296875q-2.609375 0 -2.609375 -2.375q0 -2.375 2.296875 -4.515625q2.3125 -2.15625 3.921875 -2.15625q1.609375 0 2.453125 0.921875q0.84375 0.921875 0.84375 2.15625q0 1.21875 -2.15625 3.59375q-2.140625 2.375 -4.75 2.375zm-38.78125 48.453125q1.6875 -3.828125 13.5625 -17.46875q11.890625 -13.65625 18.015625 -19.78125q0.921875 -1.234375 0.921875 -1.765625q0 -0.546875 -1.234375 -0.6875l-3.515625 -0.3125q-1.234375 0 -2.296875 1.21875q-10.4375 10.59375 -19.71875 23.09375q-9.265625 12.484375 -9.265625 15.484375q0 2.984375 1.84375 2.984375q2.453125 0 9.953125 -4.0625q7.515625 -4.0625 13.8125 -8.203125l6.28125 -4.140625l-0.15625 -2.0q-24.6875 16.25 -27.4375 16.25q-0.765625 0 -0.765625 -0.609375zm52.58319 -35.875q1.078125 -1.53125 2.296875 -1.53125q1.234375 0 2.609375 2.296875q0 2.765625 -13.875 18.09375q-13.875 15.328125 -13.875 16.71875q0 0.296875 0.921875 0.296875q0.921875 0 10.734375 -6.28125q9.8125 -6.28125 15.015625 -10.421875q8.28125 -6.75 15.1875 -15.03125l2.765625 -3.53125q3.671875 -3.375 6.4375 -3.375q0.15625 0 0.296875 0q2.921875 0.15625 2.921875 0.765625l-0.15625 0.3125q-5.0625 5.828125 -17.171875 20.546875q-12.109375 14.71875 -13.796875 17.625q1.21875 0 8.265625 -3.984375q7.0625 -3.984375 13.5 -8.125l6.296875 -3.984375l0.140625 1.84375q-9.8125 6.75 -18.390625 11.34375l-13.953125 7.203125q-12.109375 16.40625 -30.28125 35.1875q-18.171875 18.78125 -21.390625 18.78125q-3.21875 0 -3.21875 -2.140625q0 -7.515625 6.890625 -15.796875q7.984375 -9.34375 14.5 -14.71875q6.515625 -5.359375 9.734375 -7.96875q11.5 -8.890625 15.78125 -11.953125q6.296875 -7.671875 9.359375 -11.046875q6.4375 -7.515625 11.046875 -13.03125l-1.84375 1.21875q-2.15625 1.390625 -3.375 2.15625q-23.15625 16.5625 -27.75 16.5625q-1.84375 0 -1.84375 -2.0625q0 -2.078125 1.84375 -5.53125q1.84375 -3.453125 3.515625 -5.75q1.6875 -2.296875 4.75 -5.90625q3.078125 -3.609375 3.234375 -3.75l-13.03125 8.28125l-0.46875 -1.6875l5.828125 -4.0q10.890625 -7.5 14.1875 -10.328125q3.296875 -2.84375 6.359375 -7.296875zm-54.28125 91.234375q0.921875 0 10.359375 -10.734375q9.421875 -10.734375 18.46875 -21.46875l8.890625 -10.890625q0 -0.296875 -0.296875 -0.296875q-37.875 27.59375 -37.875 42.46875q0 0.921875 0.453125 0.921875zm127.8728 -71.0l0.15625 2.0q-24.6875 16.40625 -30.046875 16.40625q-0.921875 0 -0.921875 -1.078125q0 -3.21875 2.453125 -9.203125l0.765625 -2.140625q0 -0.3125 -0.546875 -0.3125q-0.53125 0 -8.953125 6.140625q-8.28125 6.125 -10.8125 6.125q-2.53125 0 -2.53125 -4.59375q0 -12.71875 14.484375 -24.828125q14.5 -12.125 34.890625 -12.125q1.84375 0 1.84375 1.53125q0 1.53125 -14.421875 17.859375q-14.40625 16.328125 -14.40625 19.703125q0 0.625 0.90625 0.625q0.921875 0 7.828125 -3.984375q6.90625 -4.0 13.03125 -7.984375l6.28125 -4.140625zm-24.375 0.15625q2.609375 -2.0 10.125 -10.578125q7.515625 -8.59375 7.515625 -9.96875q0 -0.609375 -1.234375 -0.609375q-7.046875 0 -16.40625 6.515625q-9.34375 6.515625 -15.859375 14.796875q-6.515625 8.28125 -6.515625 13.34375q0 0.90625 0.90625 0.90625q0.921875 0 2.984375 -1.140625q2.078125 -1.15625 5.0625 -3.21875q3.0 -2.078125 5.140625 -3.609375q7.359375 -5.515625 8.28125 -6.4375zm46.91931 1.6875q-24.0625 16.40625 -30.65625 16.40625q-1.6875 0 -1.6875 -1.078125q0 -4.28125 11.03125 -19.453125q11.046875 -15.1875 25.453125 -32.21875q-14.71875 -0.296875 -18.09375 -0.296875q-3.375 0 -3.375 -1.6875q0 -0.609375 1.390625 -0.609375l21.921875 0.453125q18.703125 -21.921875 20.703125 -21.921875q4.140625 0 4.140625 1.3125q0 1.296875 -17.03125 20.765625l25.765625 0.453125q1.984375 0 1.984375 0.546875q0 0.53125 -0.609375 0.6875q-0.921875 0.453125 -15.171875 0.453125l-13.796875 0q-9.96875 11.34375 -14.578125 16.484375q-4.59375 5.140625 -11.953125 13.71875q-13.640625 15.953125 -13.640625 19.015625q0 0.609375 1.140625 0.609375q1.15625 0 7.75 -3.59375q6.59375 -3.609375 9.96875 -6.0625l9.1875 -5.671875l0.15625 1.6875zm44.920166 -1.84375l0.15625 2.0q-24.6875 16.40625 -30.046875 16.40625q-0.921875 0 -0.921875 -1.078125q0 -3.21875 2.453125 -9.203125l0.765625 -2.140625q0 -0.3125 -0.546875 -0.3125q-0.53125 0 -8.953125 6.140625q-8.28125 6.125 -10.8125 6.125q-2.53125 0 -2.53125 -4.59375q0 -12.71875 14.484375 -24.828125q14.5 -12.125 34.890625 -12.125q1.84375 0 1.84375 1.53125q0 1.53125 -14.421875 17.859375q-14.40625 16.328125 -14.40625 19.703125q0 0.625 0.90625 0.625q0.921875 0 7.828125 -3.984375q6.90625 -4.0 13.03125 -7.984375l6.28125 -4.140625zm-24.375 0.15625q2.609375 -2.0 10.125 -10.578125q7.515625 -8.59375 7.515625 -9.96875q0 -0.609375 -1.234375 -0.609375q-7.046875 0 -16.40625 6.515625q-9.34375 6.515625 -15.859375 14.796875q-6.515625 8.28125 -6.515625 13.34375q0 0.90625 0.90625 0.90625q0.921875 0 2.984375 -1.140625q2.078125 -1.15625 5.0625 -3.21875q3.0 -2.078125 5.140625 -3.609375q7.359375 -5.515625 8.28125 -6.4375z" fill-rule="nonzero"/></g></svg>